<mxfile host="app.diagrams.net" modified="2023-08-05T01:07:00.428Z" agent="Mozilla/5.0 (Windows NT 10.0; Win64; x64) AppleWebKit/537.36 (KHTML, like Gecko) Chrome/115.0.0.0 Safari/537.36" etag="OT9oWNwfRRWtQ1Yh4gdM" version="21.6.6" type="github">
  <diagram id="C5RBs43oDa-KdzZeNtuy" name="Page-1">
    <mxGraphModel dx="1034" dy="1684" grid="1" gridSize="10" guides="1" tooltips="1" connect="1" arrows="1" fold="1" page="1" pageScale="1" pageWidth="827" pageHeight="1169" math="0" shadow="0">
      <root>
        <mxCell id="WIyWlLk6GJQsqaUBKTNV-0" />
        <mxCell id="WIyWlLk6GJQsqaUBKTNV-1" parent="WIyWlLk6GJQsqaUBKTNV-0" />
        <mxCell id="00WaG_C9DFhDfb6yC9pF-4" value="" style="edgeStyle=orthogonalEdgeStyle;rounded=0;orthogonalLoop=1;jettySize=auto;html=1;entryX=0;entryY=0.25;entryDx=0;entryDy=0;" edge="1" parent="WIyWlLk6GJQsqaUBKTNV-1" source="WIyWlLk6GJQsqaUBKTNV-6" target="00WaG_C9DFhDfb6yC9pF-6">
          <mxGeometry relative="1" as="geometry">
            <mxPoint x="350" y="-980" as="targetPoint" />
          </mxGeometry>
        </mxCell>
        <mxCell id="00WaG_C9DFhDfb6yC9pF-8" value="" style="edgeStyle=orthogonalEdgeStyle;rounded=0;orthogonalLoop=1;jettySize=auto;html=1;" edge="1" parent="WIyWlLk6GJQsqaUBKTNV-1" source="WIyWlLk6GJQsqaUBKTNV-6" target="00WaG_C9DFhDfb6yC9pF-7">
          <mxGeometry relative="1" as="geometry" />
        </mxCell>
        <mxCell id="WIyWlLk6GJQsqaUBKTNV-6" value="case menu:&lt;br&gt;1 - bubblesort&lt;br&gt;2 -quicksort&lt;br&gt;3 -mergesort&lt;br&gt;4 -linear searching&lt;br&gt;5 -binary search&lt;br&gt;6 - exit" style="rhombus;whiteSpace=wrap;html=1;shadow=0;fontFamily=Helvetica;fontSize=12;align=center;strokeWidth=1;spacing=6;spacingTop=-4;" parent="WIyWlLk6GJQsqaUBKTNV-1" vertex="1">
          <mxGeometry x="45" y="-1050" width="250" height="180" as="geometry" />
        </mxCell>
        <mxCell id="00WaG_C9DFhDfb6yC9pF-0" value="" style="endArrow=classic;html=1;rounded=0;entryX=0.5;entryY=0;entryDx=0;entryDy=0;" edge="1" parent="WIyWlLk6GJQsqaUBKTNV-1" target="WIyWlLk6GJQsqaUBKTNV-6">
          <mxGeometry width="50" height="50" relative="1" as="geometry">
            <mxPoint x="170" y="-1089" as="sourcePoint" />
            <mxPoint x="170" y="-1078" as="targetPoint" />
          </mxGeometry>
        </mxCell>
        <mxCell id="00WaG_C9DFhDfb6yC9pF-1" value="start" style="ellipse;whiteSpace=wrap;html=1;aspect=fixed;" vertex="1" parent="WIyWlLk6GJQsqaUBKTNV-1">
          <mxGeometry x="130" y="-1169" width="80" height="80" as="geometry" />
        </mxCell>
        <mxCell id="00WaG_C9DFhDfb6yC9pF-12" value="" style="edgeStyle=orthogonalEdgeStyle;rounded=0;orthogonalLoop=1;jettySize=auto;html=1;" edge="1" parent="WIyWlLk6GJQsqaUBKTNV-1">
          <mxGeometry relative="1" as="geometry">
            <mxPoint x="396" y="-880" as="sourcePoint" />
            <mxPoint x="400" y="-865" as="targetPoint" />
            <Array as="points">
              <mxPoint x="400" y="-920" />
              <mxPoint x="400" y="-920" />
            </Array>
          </mxGeometry>
        </mxCell>
        <mxCell id="00WaG_C9DFhDfb6yC9pF-15" value="" style="edgeStyle=orthogonalEdgeStyle;rounded=0;orthogonalLoop=1;jettySize=auto;html=1;" edge="1" parent="WIyWlLk6GJQsqaUBKTNV-1" source="00WaG_C9DFhDfb6yC9pF-6">
          <mxGeometry relative="1" as="geometry">
            <mxPoint x="570" y="-950" as="targetPoint" />
          </mxGeometry>
        </mxCell>
        <mxCell id="00WaG_C9DFhDfb6yC9pF-22" value="" style="edgeStyle=orthogonalEdgeStyle;rounded=0;orthogonalLoop=1;jettySize=auto;html=1;" edge="1" parent="WIyWlLk6GJQsqaUBKTNV-1" source="00WaG_C9DFhDfb6yC9pF-6">
          <mxGeometry relative="1" as="geometry">
            <mxPoint x="410" y="-1060" as="targetPoint" />
          </mxGeometry>
        </mxCell>
        <mxCell id="00WaG_C9DFhDfb6yC9pF-23" value="" style="edgeStyle=orthogonalEdgeStyle;rounded=0;orthogonalLoop=1;jettySize=auto;html=1;exitX=0;exitY=0.75;exitDx=0;exitDy=0;" edge="1" parent="WIyWlLk6GJQsqaUBKTNV-1" source="00WaG_C9DFhDfb6yC9pF-6" target="00WaG_C9DFhDfb6yC9pF-7">
          <mxGeometry relative="1" as="geometry">
            <mxPoint x="320" y="-840" as="sourcePoint" />
            <mxPoint x="180" y="-700" as="targetPoint" />
            <Array as="points">
              <mxPoint x="356" y="-950" />
              <mxPoint x="340" y="-950" />
              <mxPoint x="340" y="-710" />
            </Array>
          </mxGeometry>
        </mxCell>
        <mxCell id="00WaG_C9DFhDfb6yC9pF-36" style="edgeStyle=orthogonalEdgeStyle;rounded=0;orthogonalLoop=1;jettySize=auto;html=1;" edge="1" parent="WIyWlLk6GJQsqaUBKTNV-1" source="00WaG_C9DFhDfb6yC9pF-6">
          <mxGeometry relative="1" as="geometry">
            <mxPoint x="550" y="-880" as="targetPoint" />
            <Array as="points">
              <mxPoint x="410" y="-900" />
              <mxPoint x="451" y="-900" />
            </Array>
          </mxGeometry>
        </mxCell>
        <mxCell id="00WaG_C9DFhDfb6yC9pF-6" value="display the choice" style="shape=parallelogram;perimeter=parallelogramPerimeter;whiteSpace=wrap;html=1;fixedSize=1;" vertex="1" parent="WIyWlLk6GJQsqaUBKTNV-1">
          <mxGeometry x="350" y="-980" width="120" height="60" as="geometry" />
        </mxCell>
        <mxCell id="00WaG_C9DFhDfb6yC9pF-7" value="end" style="ellipse;whiteSpace=wrap;html=1;shadow=0;strokeWidth=1;spacing=6;spacingTop=-4;" vertex="1" parent="WIyWlLk6GJQsqaUBKTNV-1">
          <mxGeometry x="130" y="-740" width="80" height="80" as="geometry" />
        </mxCell>
        <mxCell id="00WaG_C9DFhDfb6yC9pF-13" value="bubblesort" style="text;html=1;strokeColor=none;fillColor=none;align=center;verticalAlign=middle;whiteSpace=wrap;rounded=0;" vertex="1" parent="WIyWlLk6GJQsqaUBKTNV-1">
          <mxGeometry x="350" y="-910" width="60" height="30" as="geometry" />
        </mxCell>
        <mxCell id="00WaG_C9DFhDfb6yC9pF-20" value="quicksort" style="text;html=1;strokeColor=none;fillColor=none;align=center;verticalAlign=middle;whiteSpace=wrap;rounded=0;" vertex="1" parent="WIyWlLk6GJQsqaUBKTNV-1">
          <mxGeometry x="510" y="-975" width="60" height="30" as="geometry" />
        </mxCell>
        <mxCell id="00WaG_C9DFhDfb6yC9pF-28" value="" style="edgeStyle=orthogonalEdgeStyle;rounded=0;orthogonalLoop=1;jettySize=auto;html=1;entryX=0.958;entryY=0.721;entryDx=0;entryDy=0;entryPerimeter=0;" edge="1" parent="WIyWlLk6GJQsqaUBKTNV-1" target="00WaG_C9DFhDfb6yC9pF-7">
          <mxGeometry relative="1" as="geometry">
            <mxPoint x="470" y="-1060" as="sourcePoint" />
            <mxPoint x="220" y="-680" as="targetPoint" />
            <Array as="points">
              <mxPoint x="761" y="-1060" />
              <mxPoint x="761" y="-682" />
            </Array>
          </mxGeometry>
        </mxCell>
        <mxCell id="00WaG_C9DFhDfb6yC9pF-24" value="choice 6" style="text;html=1;strokeColor=none;fillColor=none;align=center;verticalAlign=middle;whiteSpace=wrap;rounded=0;" vertex="1" parent="WIyWlLk6GJQsqaUBKTNV-1">
          <mxGeometry x="340" y="-760" width="60" height="30" as="geometry" />
        </mxCell>
        <mxCell id="00WaG_C9DFhDfb6yC9pF-25" value="merge sort" style="text;html=1;strokeColor=none;fillColor=none;align=center;verticalAlign=middle;whiteSpace=wrap;rounded=0;" vertex="1" parent="WIyWlLk6GJQsqaUBKTNV-1">
          <mxGeometry x="420" y="-1032.5" width="60" height="30" as="geometry" />
        </mxCell>
        <mxCell id="00WaG_C9DFhDfb6yC9pF-26" value="" style="endArrow=classic;html=1;rounded=0;" edge="1" parent="WIyWlLk6GJQsqaUBKTNV-1">
          <mxGeometry width="50" height="50" relative="1" as="geometry">
            <mxPoint x="470" y="-980" as="sourcePoint" />
            <mxPoint x="520" y="-1030" as="targetPoint" />
          </mxGeometry>
        </mxCell>
        <mxCell id="00WaG_C9DFhDfb6yC9pF-29" style="edgeStyle=orthogonalEdgeStyle;rounded=0;orthogonalLoop=1;jettySize=auto;html=1;entryX=0.983;entryY=0.729;entryDx=0;entryDy=0;entryPerimeter=0;" edge="1" parent="WIyWlLk6GJQsqaUBKTNV-1">
          <mxGeometry relative="1" as="geometry">
            <mxPoint x="570" y="-1020" as="sourcePoint" />
            <mxPoint x="198.6400000000001" y="-706.68" as="targetPoint" />
            <Array as="points">
              <mxPoint x="720" y="-1020" />
              <mxPoint x="720" y="-815" />
              <mxPoint x="650" y="-815" />
              <mxPoint x="650" y="-707" />
            </Array>
          </mxGeometry>
        </mxCell>
        <mxCell id="00WaG_C9DFhDfb6yC9pF-30" value="merge sort" style="shape=parallelogram;perimeter=parallelogramPerimeter;whiteSpace=wrap;html=1;fixedSize=1;" vertex="1" parent="WIyWlLk6GJQsqaUBKTNV-1">
          <mxGeometry x="370" y="-1120" width="120" height="60" as="geometry" />
        </mxCell>
        <mxCell id="00WaG_C9DFhDfb6yC9pF-31" value="linear search" style="shape=parallelogram;perimeter=parallelogramPerimeter;whiteSpace=wrap;html=1;fixedSize=1;" vertex="1" parent="WIyWlLk6GJQsqaUBKTNV-1">
          <mxGeometry x="490" y="-1040" width="110" height="53" as="geometry" />
        </mxCell>
        <mxCell id="00WaG_C9DFhDfb6yC9pF-38" style="edgeStyle=orthogonalEdgeStyle;rounded=0;orthogonalLoop=1;jettySize=auto;html=1;exitX=1;exitY=0.5;exitDx=0;exitDy=0;" edge="1" parent="WIyWlLk6GJQsqaUBKTNV-1" source="00WaG_C9DFhDfb6yC9pF-32">
          <mxGeometry relative="1" as="geometry">
            <mxPoint x="720" y="-950" as="targetPoint" />
          </mxGeometry>
        </mxCell>
        <mxCell id="00WaG_C9DFhDfb6yC9pF-32" value="display the quick sorted array" style="shape=parallelogram;perimeter=parallelogramPerimeter;whiteSpace=wrap;html=1;fixedSize=1;" vertex="1" parent="WIyWlLk6GJQsqaUBKTNV-1">
          <mxGeometry x="560" y="-980" width="120" height="60" as="geometry" />
        </mxCell>
        <mxCell id="00WaG_C9DFhDfb6yC9pF-33" value="exit" style="text;html=1;strokeColor=none;fillColor=none;align=center;verticalAlign=middle;whiteSpace=wrap;rounded=0;" vertex="1" parent="WIyWlLk6GJQsqaUBKTNV-1">
          <mxGeometry x="670" y="-1080" width="60" height="30" as="geometry" />
        </mxCell>
        <mxCell id="00WaG_C9DFhDfb6yC9pF-34" value="exit" style="text;html=1;strokeColor=none;fillColor=none;align=center;verticalAlign=middle;whiteSpace=wrap;rounded=0;" vertex="1" parent="WIyWlLk6GJQsqaUBKTNV-1">
          <mxGeometry x="660" y="-840" width="60" height="30" as="geometry" />
        </mxCell>
        <mxCell id="00WaG_C9DFhDfb6yC9pF-40" value="" style="edgeStyle=orthogonalEdgeStyle;rounded=0;orthogonalLoop=1;jettySize=auto;html=1;" edge="1" parent="WIyWlLk6GJQsqaUBKTNV-1" source="00WaG_C9DFhDfb6yC9pF-35">
          <mxGeometry relative="1" as="geometry">
            <mxPoint x="650" y="-780" as="targetPoint" />
            <Array as="points">
              <mxPoint x="410" y="-800" />
              <mxPoint x="651" y="-800" />
            </Array>
          </mxGeometry>
        </mxCell>
        <mxCell id="00WaG_C9DFhDfb6yC9pF-35" value="bubble sort &lt;br&gt;the array" style="shape=parallelogram;perimeter=parallelogramPerimeter;whiteSpace=wrap;html=1;fixedSize=1;" vertex="1" parent="WIyWlLk6GJQsqaUBKTNV-1">
          <mxGeometry x="350" y="-870" width="120" height="60" as="geometry" />
        </mxCell>
        <mxCell id="00WaG_C9DFhDfb6yC9pF-39" value="" style="edgeStyle=orthogonalEdgeStyle;rounded=0;orthogonalLoop=1;jettySize=auto;html=1;" edge="1" parent="WIyWlLk6GJQsqaUBKTNV-1" source="00WaG_C9DFhDfb6yC9pF-37" target="00WaG_C9DFhDfb6yC9pF-34">
          <mxGeometry relative="1" as="geometry" />
        </mxCell>
        <mxCell id="00WaG_C9DFhDfb6yC9pF-37" value="binary search" style="shape=parallelogram;perimeter=parallelogramPerimeter;whiteSpace=wrap;html=1;fixedSize=1;" vertex="1" parent="WIyWlLk6GJQsqaUBKTNV-1">
          <mxGeometry x="530" y="-900" width="120" height="45" as="geometry" />
        </mxCell>
        <mxCell id="00WaG_C9DFhDfb6yC9pF-41" value="exit&lt;br&gt;" style="text;html=1;strokeColor=none;fillColor=none;align=center;verticalAlign=middle;whiteSpace=wrap;rounded=0;" vertex="1" parent="WIyWlLk6GJQsqaUBKTNV-1">
          <mxGeometry x="500" y="-830" width="60" height="30" as="geometry" />
        </mxCell>
        <mxCell id="00WaG_C9DFhDfb6yC9pF-42" value="exit" style="text;html=1;strokeColor=none;fillColor=none;align=center;verticalAlign=middle;whiteSpace=wrap;rounded=0;" vertex="1" parent="WIyWlLk6GJQsqaUBKTNV-1">
          <mxGeometry x="650" y="-900" width="60" height="30" as="geometry" />
        </mxCell>
        <mxCell id="00WaG_C9DFhDfb6yC9pF-43" value="exit" style="text;html=1;strokeColor=none;fillColor=none;align=center;verticalAlign=middle;whiteSpace=wrap;rounded=0;" vertex="1" parent="WIyWlLk6GJQsqaUBKTNV-1">
          <mxGeometry x="670" y="-980" width="60" height="30" as="geometry" />
        </mxCell>
        <mxCell id="00WaG_C9DFhDfb6yC9pF-44" value="binary search" style="text;html=1;strokeColor=none;fillColor=none;align=center;verticalAlign=middle;whiteSpace=wrap;rounded=0;" vertex="1" parent="WIyWlLk6GJQsqaUBKTNV-1">
          <mxGeometry x="470" y="-910" width="60" height="30" as="geometry" />
        </mxCell>
      </root>
    </mxGraphModel>
  </diagram>
</mxfile>
